<svg width="22" height="21" viewBox="0 0 22 21" fill="none" xmlns="http://www.w3.org/2000/svg">
<path d="M21.5328 6.17117C21.5159 5.30086 21.3469 4.43884 21.0343 3.6224C20.7639 2.92201 20.3457 2.28792 19.8007 1.76159C19.2641 1.22697 18.6178 0.812536 17.9038 0.551442C17.0716 0.24476 16.1928 0.0789873 15.3057 0.0624099C14.165 0.0126778 13.8017 0.000244141 10.8951 0.000244141C7.98856 0.000244141 7.62524 0.0126778 6.48459 0.0624099C5.59741 0.0789873 4.71869 0.24476 3.88643 0.551442C3.17247 0.81668 2.5261 1.22697 1.98957 1.76159C1.44459 2.28792 1.02212 2.92201 0.75597 3.6224C0.443346 4.43884 0.274361 5.30086 0.257462 6.17117C0.206766 7.29015 0.194092 7.64656 0.194092 10.4979C0.194092 13.3492 0.206766 13.7056 0.257462 14.8246C0.274361 15.6949 0.443346 16.5569 0.75597 17.3733C1.02635 18.0737 1.44459 18.7078 1.98957 19.2341C2.5261 19.7688 3.17247 20.1832 3.88643 20.4443C4.71869 20.751 5.59741 20.9168 6.48459 20.9333C7.62524 20.9831 7.98856 20.9955 10.8951 20.9955C13.8017 20.9955 14.165 20.9831 15.3057 20.9333C16.1928 20.9168 17.0716 20.751 17.9038 20.4443C19.3402 19.8972 20.4766 18.7824 21.0343 17.3733C21.3469 16.5569 21.5159 15.6949 21.5328 14.8246C21.5835 13.7056 21.5961 13.3492 21.5961 10.4979C21.5961 7.64656 21.5835 7.29015 21.5328 6.17117ZM19.6063 14.7417C19.5979 15.4089 19.4754 16.0679 19.2388 16.6895C18.8797 17.6054 18.1404 18.3265 17.2067 18.683C16.5688 18.915 15.8971 19.0352 15.2212 19.0435C14.0932 19.0932 13.7552 19.1057 10.8993 19.1057C8.04348 19.1057 7.70551 19.0932 6.57753 19.0435C5.89736 19.0352 5.22565 18.915 4.59195 18.683C4.12724 18.513 3.70477 18.2478 3.36258 17.8997C3.00771 17.5598 2.7331 17.1495 2.56412 16.6937C2.32754 16.0679 2.20502 15.4089 2.19657 14.7458C2.14588 13.6393 2.1332 13.3077 2.1332 10.5062C2.1332 7.70458 2.14588 7.37303 2.19657 6.26649C2.20502 5.59925 2.32754 4.9403 2.56412 4.31865C2.73733 3.86277 3.00771 3.44834 3.36258 3.11265C3.709 2.76452 4.12724 2.49514 4.59195 2.32937C5.22987 2.09728 5.90159 1.9771 6.57753 1.96881C7.70551 1.91908 8.04348 1.90664 10.8993 1.90664C13.7552 1.90664 14.0932 1.91908 15.2212 1.96881C15.9013 1.9771 16.573 2.09728 17.2067 2.32937C17.6715 2.49928 18.0939 2.76452 18.4361 3.11265C18.791 3.45248 19.0656 3.86277 19.2346 4.31865C19.4711 4.94445 19.5937 5.6034 19.6021 6.26649C19.6528 7.37303 19.6655 7.70458 19.6655 10.5062C19.6655 13.3077 19.6528 13.6393 19.6021 14.7458L19.6063 14.7417ZM10.8951 5.11022C7.86182 5.11022 5.39886 7.52223 5.39886 10.502C5.39886 13.4818 7.8576 15.8938 10.8951 15.8938C13.9326 15.8938 16.3914 13.4818 16.3914 10.502C16.3914 7.52637 13.9326 5.11022 10.8951 5.11022ZM10.8951 13.9998C8.92643 13.9998 7.32952 12.4333 7.32952 10.502C7.32952 8.57075 8.92643 7.00419 10.8951 7.00419C12.8638 7.00419 14.4607 8.57075 14.4607 10.502C14.4607 12.4333 12.8638 13.9998 10.8951 13.9998ZM17.8911 4.89886C17.8911 5.59511 17.3166 6.15874 16.6068 6.15874C15.8971 6.15874 15.3225 5.59511 15.3225 4.89886C15.3225 4.20261 15.8971 3.63898 16.6068 3.63898C17.3166 3.63898 17.8911 4.20261 17.8911 4.89886Z" fill="#262523"/>
</svg>
