<svg width="22" height="21" viewBox="0 0 22 21" fill="none" xmlns="http://www.w3.org/2000/svg">
<path d="M11.1051 0.236572C5.32577 0.236572 0.640625 4.82851 0.640625 10.5021C0.640625 16.1757 5.32577 20.7677 11.1051 20.7677C16.8844 20.7677 21.5653 16.1716 21.5653 10.5021C21.5653 4.83265 16.8844 0.236572 11.1051 0.236572ZM15.241 15.7489C15.034 15.7489 14.8904 15.6701 14.7425 15.5831C13.3272 14.7418 11.5782 14.3025 9.68138 14.3025C8.71393 14.3025 7.67046 14.4144 6.57627 14.634L6.44108 14.6672C6.30167 14.7003 6.16226 14.7376 6.05242 14.7376C5.61306 14.7376 5.26662 14.4019 5.26662 13.9709C5.26662 13.5399 5.51588 13.2291 5.93412 13.1503C7.23531 12.8602 8.46468 12.7152 9.68138 12.7152C11.8866 12.7152 13.8596 13.2167 15.5452 14.2072C15.8325 14.3729 16.0141 14.5636 16.0141 14.9863C16.0141 15.409 15.6677 15.7489 15.2368 15.7489H15.241ZM16.3267 12.7608C16.0817 12.7608 15.917 12.6696 15.7775 12.5867C13.2301 11.103 9.43636 10.614 6.31435 11.4304C6.26365 11.447 6.21294 11.4595 6.1707 11.4719C6.05241 11.5092 5.94256 11.5423 5.79047 11.5423C5.27506 11.5423 4.86107 11.1321 4.86107 10.6223C4.86107 10.1125 5.12299 9.79343 5.59192 9.66081C6.79595 9.33755 7.92815 9.12205 9.55464 9.12205C12.1866 9.12205 14.7341 9.76856 16.7323 10.9414C17.0956 11.1445 17.2604 11.4263 17.2604 11.8407C17.2604 12.3463 16.8421 12.7566 16.331 12.7566L16.3267 12.7608ZM17.5604 9.35413C17.328 9.35413 17.1844 9.30025 16.9731 9.18421C15.2452 8.16885 12.5499 7.56377 9.75742 7.56377C8.30414 7.56377 6.98183 7.72126 5.8285 8.02794C5.79048 8.03623 5.75245 8.04866 5.7102 8.0611C5.58769 8.09839 5.43561 8.13984 5.27507 8.13984C4.6625 8.13984 4.18088 7.66324 4.18088 7.05816C4.18088 6.53183 4.48084 6.12569 4.9878 5.98063C6.38194 5.57863 7.98308 5.37142 9.74899 5.37142C12.9344 5.37142 15.9634 6.06352 18.0589 7.27367C18.4517 7.49332 18.6461 7.82901 18.6461 8.28903C18.6461 8.88582 18.1645 9.35827 17.5519 9.35827L17.5604 9.35413Z" fill="#262523"/>
</svg>
