<svg width="20" height="23" viewBox="0 0 20 23" fill="none" xmlns="http://www.w3.org/2000/svg">
<path fill-rule="evenodd" clip-rule="evenodd" d="M13.9882 0.51123V0.527807C13.9882 0.863499 14.0896 5.69995 19.2648 6.00249C19.2648 10.5032 19.2648 6.00249 19.2648 9.74069C18.8761 9.76141 15.8597 9.55005 13.9797 7.90474V15.1781C14.022 18.4728 12.1504 21.7013 8.65244 22.3561C7.67232 22.5384 6.78938 22.5591 5.30653 22.24C-3.23148 19.7327 -0.392523 7.3121 8.17928 8.64243C8.17928 12.6542 8.17928 8.64243 8.17928 12.6542C4.63903 12.1444 3.45191 15.033 4.394 17.101C5.25161 18.9867 8.77497 19.3929 10.0086 16.7363C10.148 16.2142 10.2156 15.6215 10.2156 14.9584V0.51123H13.984H13.9882Z" fill="#262523"/>
</svg>
