<svg width="23" height="19" viewBox="0 0 23 19" fill="none" xmlns="http://www.w3.org/2000/svg">
<path d="M20.4521 5.12159C20.4605 5.31223 20.4647 5.50287 20.4647 5.68937C20.4647 11.508 15.9486 18.2177 7.69787 18.2177C5.16308 18.2177 2.80573 17.4883 0.815918 16.2367C1.16656 16.2782 1.52566 16.2989 1.88475 16.2989C3.98863 16.2989 5.92352 15.5944 7.45706 14.4174C5.4926 14.3801 3.83654 13.1119 3.26621 11.3588C3.54082 11.4086 3.81964 11.4376 4.11114 11.4376C4.52093 11.4376 4.91805 11.3837 5.29404 11.2842C3.24087 10.8781 1.69465 9.10016 1.69465 6.96583V6.91195C2.29877 7.2435 2.99161 7.43828 3.7267 7.46315C2.52267 6.67158 1.72844 5.32467 1.72844 3.7954C1.72844 2.9914 1.94813 2.23299 2.33679 1.58232C4.55051 4.24714 7.8584 6.00019 11.5888 6.18254C11.5127 5.85929 11.4747 5.52359 11.4747 5.17961C11.4747 2.75103 13.4814 0.77832 15.9613 0.77832C17.254 0.77832 18.42 1.31294 19.2396 2.16668C20.262 1.96775 21.221 1.60305 22.0912 1.09744C21.7575 2.12523 21.0435 2.98726 20.1183 3.53431C21.0266 3.42656 21.8885 3.19447 22.6954 2.8422C22.0955 3.72495 21.3308 4.49994 20.4563 5.12159H20.4521Z" fill="#262523"/>
</svg>
