<svg width="25" height="18" viewBox="0 0 25 18" fill="none" xmlns="http://www.w3.org/2000/svg">
<path d="M23.8463 3.25114C23.5717 2.23992 22.7605 1.44421 21.7297 1.17482C19.8624 0.685791 12.3764 0.685791 12.3764 0.685791C12.3764 0.685791 4.89031 0.685791 3.02302 1.17482C1.9922 1.44421 1.18107 2.23992 0.906464 3.25114C0.407956 5.08294 0.407959 8.90403 0.407959 8.90403C0.407959 8.90403 0.407956 12.7251 0.906464 14.5569C1.18107 15.5681 1.9922 16.3638 3.02302 16.6332C4.89031 17.1223 12.3764 17.1223 12.3764 17.1223C12.3764 17.1223 19.8624 17.1223 21.7297 16.6332C22.7605 16.3638 23.5717 15.5681 23.8463 14.5569C24.3448 12.7251 24.3448 8.90403 24.3448 8.90403C24.3448 8.90403 24.3448 5.08294 23.8463 3.25114ZM9.98099 12.4267V5.38133L16.1997 8.90403L9.98099 12.4267Z" fill="#1E1E1E"/>
</svg>
